<svg width="23" height="29" viewBox="0 0 23 29" fill="none" xmlns="http://www.w3.org/2000/svg">
<g clip-path="url(#clip0_5_505)">
<path d="M12.9588 2.61967C13.9768 1.43803 15.6981 0.558802 17.1188 0.5C17.3002 2.14365 16.6339 3.78731 15.647 4.97175C14.6602 6.15339 13.0439 7.07462 11.4587 6.95422C11.246 5.34696 12.0428 3.67251 12.9588 2.61967ZM21.0405 25.0232C19.8609 26.7285 18.6415 28.4253 16.7189 28.4617C14.8247 28.4981 14.2178 27.3501 12.057 27.3501C9.89339 27.3501 9.21566 28.4253 7.42916 28.4981C5.57178 28.5681 4.1596 26.6529 2.97144 24.956C0.544081 21.4811 -1.30763 15.1333 1.18211 10.8491C2.41564 8.72108 4.62749 7.37423 7.02366 7.34063C8.84985 7.30703 10.5711 8.55867 11.6856 8.55867C12.8028 8.55867 14.8956 7.05502 17.0932 7.27623C18.0148 7.31543 20.5982 7.64304 22.257 10.0483C22.1266 10.1323 19.1718 11.8348 19.2087 15.3797C19.2455 19.6134 22.9546 21.0219 23 21.0415C22.9631 21.1395 22.4017 23.052 21.0405 25.0232Z" fill="white"/>
</g>
<defs>
<clipPath id="clip0_5_505">
<rect width="23" height="28" fill="white" transform="translate(0 0.5)"/>
</clipPath>
</defs>
</svg>
