<svg width="39" height="29" viewBox="0 0 39 29" fill="none" xmlns="http://www.w3.org/2000/svg">
<path d="M38.9762 0.143066C37.4608 0.962911 34.4202 2.08024 32.6328 2.40251C32.5803 2.4149 32.5376 2.43084 32.4871 2.44323C30.9075 1.02312 28.7432 0.143066 26.3477 0.143066C21.5197 0.143066 17.6048 3.71107 17.6048 8.11132C17.6048 8.34328 17.5834 8.77003 17.6048 8.99668C11.0904 8.99668 6.13222 5.88729 2.57679 1.91379C2.19017 2.79915 2.02114 4.19802 2.02114 5.5119C2.02114 7.99268 4.14856 10.4292 7.46114 11.9396C6.85108 12.083 6.17885 12.1858 5.47942 12.1858C4.35062 12.1858 3.15577 11.9148 2.06194 11.0932C2.06194 11.1233 2.06194 11.1517 2.06194 11.1835C2.06194 14.6506 6.09919 17.011 9.68959 17.6679C8.96102 18.0592 7.49222 18.0982 6.77531 18.0982C6.27017 18.0982 4.48274 17.8875 4.00479 17.806C5.00342 20.648 8.60548 22.2452 12.0385 22.3019C9.35348 24.2214 7.49028 24.9332 1.99199 24.9332H0.11908C3.59291 26.9624 8.01679 28.4764 12.4504 28.4764C26.8858 28.4764 35.0905 18.4488 35.0905 8.99668C35.0905 8.8444 35.0866 8.52567 35.0808 8.20517C35.0808 8.17329 35.0905 8.14319 35.0905 8.11132C35.0905 8.06351 35.075 8.01747 35.075 7.96966C35.0691 7.72884 35.0633 7.50396 35.0575 7.38709C36.5923 6.37778 37.9232 5.1188 38.9762 3.68451C37.5676 4.25468 36.0561 4.63716 34.4688 4.81069C36.0891 3.92533 38.3914 1.81463 38.9762 0.143066Z" fill="#32794F"/>
</svg>
