<svg width="31" height="35" viewBox="0 0 31 35" fill="none" xmlns="http://www.w3.org/2000/svg">
<g clip-path="url(#clip0_5_513)">
<path d="M14.9506 16.709L1.07092 31.6239C1.22679 32.1905 1.50689 32.713 1.88981 33.1515C2.27272 33.59 2.74832 33.9329 3.28025 34.154C3.81218 34.3751 4.38634 34.4685 4.95886 34.4271C5.53138 34.3857 6.0871 34.2106 6.58353 33.9151L22.2008 24.7923L14.9506 16.709Z" fill="#EA4335"/>
<path d="M28.9853 14.1738L22.2319 10.2062L14.6301 17.0483L22.2628 24.771L28.9648 20.8459C29.5585 20.5271 30.0558 20.0476 30.4028 19.4595C30.7498 18.8715 30.9332 18.1972 30.9332 17.5098C30.9332 16.8224 30.7498 16.1481 30.4028 15.5601C30.0558 14.972 29.5585 14.4925 28.9648 14.1737H28.9855L28.9853 14.1738Z" fill="#FBBC04"/>
<path d="M1.07092 3.32176C0.987023 3.63988 0.945261 3.96813 0.946755 4.29767V30.6479C0.947625 30.9773 0.989347 31.3053 1.07092 31.6239L15.4264 17.0909L1.07092 3.32176Z" fill="#4285F4"/>
<path d="M15.054 17.4729L22.2318 10.2063L6.6353 1.041C6.04849 0.688518 5.38108 0.501848 4.70105 0.500007C3.01349 0.496643 1.52986 1.64543 1.07092 3.31119L15.054 17.4729Z" fill="#34A853"/>
</g>
<defs>
<clipPath id="clip0_5_513">
<rect width="30" height="34" fill="white" transform="translate(0.940002 0.5)"/>
</clipPath>
</defs>
</svg>
