<svg width="733" height="204" viewBox="0 0 733 204" fill="none" xmlns="http://www.w3.org/2000/svg">
<path d="M13.4766 160V52.9199H36.1816V141.25H79.6143V160H13.4766ZM98.291 160V52.9199H120.996V160H98.291ZM170.288 160H147.949V52.9199H209.326V71.5234H170.288V99.1357H206.616V117.666H170.288V160ZM291.943 160H230.273V52.9199H291.943V71.5234H252.979V95.0342H289.233V113.638H252.979V141.25H291.943V160ZM377.563 130.264C377.563 136.611 376.025 142.129 372.949 146.816C369.873 151.504 365.381 155.117 359.473 157.656C353.613 160.195 346.484 161.465 338.086 161.465C334.375 161.465 330.737 161.221 327.173 160.732C323.657 160.244 320.264 159.536 316.992 158.608C313.77 157.632 310.693 156.436 307.764 155.02V133.926C312.842 136.172 318.115 138.198 323.584 140.005C329.053 141.812 334.473 142.715 339.844 142.715C343.555 142.715 346.533 142.227 348.779 141.25C351.074 140.273 352.734 138.931 353.76 137.222C354.785 135.513 355.298 133.56 355.298 131.362C355.298 128.677 354.395 126.382 352.588 124.478C350.781 122.573 348.291 120.791 345.117 119.131C341.992 117.471 338.452 115.688 334.497 113.784C332.007 112.612 329.297 111.196 326.367 109.536C323.438 107.827 320.654 105.752 318.018 103.311C315.381 100.869 313.208 97.915 311.499 94.4482C309.839 90.9326 309.009 86.7334 309.009 81.8506C309.009 75.4541 310.474 69.9854 313.403 65.4443C316.333 60.9033 320.508 57.4365 325.928 55.0439C331.396 52.6025 337.842 51.3818 345.264 51.3818C350.83 51.3818 356.128 52.041 361.157 53.3594C366.235 54.6289 371.533 56.4844 377.051 58.9258L369.727 76.5771C364.795 74.5752 360.376 73.0371 356.47 71.9629C352.563 70.8398 348.584 70.2783 344.531 70.2783C341.699 70.2783 339.282 70.7422 337.28 71.6699C335.278 72.5488 333.765 73.8184 332.739 75.4785C331.714 77.0898 331.201 78.9697 331.201 81.1182C331.201 83.6572 331.934 85.8057 333.398 87.5635C334.912 89.2725 337.158 90.9326 340.137 92.5439C343.164 94.1553 346.924 96.0352 351.416 98.1836C356.885 100.771 361.548 103.481 365.405 106.313C369.312 109.097 372.314 112.393 374.414 116.201C376.514 119.961 377.563 124.648 377.563 130.264ZM438.281 160H415.576V71.8164H386.499V52.9199H467.358V71.8164H438.281V160ZM517.163 97.0117L539.502 52.9199H563.965L528.442 118.325V160H505.884V119.058L470.361 52.9199H494.971L517.163 97.0117ZM577.441 160V52.9199H600.146V141.25H643.579V160H577.441ZM723.926 160H662.256V52.9199H723.926V71.5234H684.961V95.0342H721.216V113.638H684.961V141.25H723.926V160Z" fill="#F5F5F5"/>
<path d="M289.672 88.4453L282.406 117H275.512L271.645 102C271.566 101.714 271.462 101.277 271.332 100.691C271.202 100.105 271.065 99.4674 270.922 98.7773C270.779 98.0742 270.648 97.4167 270.531 96.8047C270.427 96.1797 270.355 95.6849 270.316 95.3203C270.277 95.6849 270.199 96.1732 270.082 96.7852C269.978 97.3971 269.854 98.0482 269.711 98.7383C269.581 99.4284 269.451 100.073 269.32 100.672C269.19 101.271 269.086 101.727 269.008 102.039L265.16 117H258.285L251 88.4453H256.957L260.609 104.031C260.714 104.5 260.831 105.06 260.961 105.711C261.104 106.362 261.241 107.046 261.371 107.762C261.514 108.465 261.638 109.148 261.742 109.812C261.859 110.464 261.944 111.03 261.996 111.512C262.061 111.017 262.146 110.444 262.25 109.793C262.354 109.129 262.465 108.458 262.582 107.781C262.712 107.091 262.842 106.453 262.973 105.867C263.103 105.281 263.22 104.806 263.324 104.441L267.484 88.4453H273.207L277.367 104.441C277.458 104.793 277.562 105.268 277.68 105.867C277.81 106.453 277.94 107.091 278.07 107.781C278.201 108.471 278.318 109.148 278.422 109.812C278.539 110.464 278.624 111.03 278.676 111.512C278.767 110.861 278.891 110.073 279.047 109.148C279.216 108.211 279.392 107.28 279.574 106.355C279.77 105.431 279.939 104.656 280.082 104.031L283.715 88.4453H289.672ZM298.754 86.6094V92.8008C298.754 93.8815 298.715 94.9102 298.637 95.8867C298.572 96.8633 298.52 97.5534 298.48 97.957H298.793C299.262 97.2018 299.815 96.5898 300.453 96.1211C301.104 95.6523 301.82 95.3073 302.602 95.0859C303.383 94.8646 304.223 94.7539 305.121 94.7539C306.697 94.7539 308.07 95.0339 309.242 95.5938C310.414 96.1406 311.326 97.0065 311.977 98.1914C312.628 99.3633 312.953 100.887 312.953 102.762V117H306.996V104.246C306.996 102.684 306.71 101.505 306.137 100.711C305.564 99.9167 304.678 99.5195 303.48 99.5195C302.283 99.5195 301.339 99.7995 300.648 100.359C299.958 100.906 299.47 101.72 299.184 102.801C298.897 103.868 298.754 105.177 298.754 106.727V117H292.797V86.6094H298.754ZM315.961 95.1641H322.484L326.605 107.449C326.736 107.84 326.846 108.237 326.938 108.641C327.029 109.044 327.107 109.461 327.172 109.891C327.237 110.32 327.289 110.77 327.328 111.238H327.445C327.523 110.535 327.628 109.878 327.758 109.266C327.901 108.654 328.077 108.048 328.285 107.449L332.328 95.1641H338.715L329.477 119.793C328.917 121.303 328.188 122.56 327.289 123.562C326.391 124.578 325.355 125.34 324.184 125.848C323.025 126.355 321.749 126.609 320.355 126.609C319.678 126.609 319.092 126.57 318.598 126.492C318.103 126.427 317.68 126.355 317.328 126.277V121.551C317.602 121.616 317.947 121.674 318.363 121.727C318.78 121.779 319.216 121.805 319.672 121.805C320.505 121.805 321.221 121.629 321.82 121.277C322.419 120.926 322.921 120.451 323.324 119.852C323.728 119.266 324.047 118.621 324.281 117.918L324.633 116.844L315.961 95.1641ZM358.207 86.6094V92.8008C358.207 93.8815 358.168 94.9102 358.09 95.8867C358.025 96.8633 357.973 97.5534 357.934 97.957H358.246C358.715 97.2018 359.268 96.5898 359.906 96.1211C360.557 95.6523 361.273 95.3073 362.055 95.0859C362.836 94.8646 363.676 94.7539 364.574 94.7539C366.15 94.7539 367.523 95.0339 368.695 95.5938C369.867 96.1406 370.779 97.0065 371.43 98.1914C372.081 99.3633 372.406 100.887 372.406 102.762V117H366.449V104.246C366.449 102.684 366.163 101.505 365.59 100.711C365.017 99.9167 364.132 99.5195 362.934 99.5195C361.736 99.5195 360.792 99.7995 360.102 100.359C359.411 100.906 358.923 101.72 358.637 102.801C358.35 103.868 358.207 105.177 358.207 106.727V117H352.25V86.6094H358.207ZM387.543 94.7539C389.561 94.7539 391.299 95.1445 392.758 95.9258C394.216 96.694 395.342 97.8138 396.137 99.2852C396.931 100.757 397.328 102.553 397.328 104.676V107.566H383.246C383.311 109.246 383.812 110.568 384.75 111.531C385.701 112.482 387.016 112.957 388.695 112.957C390.089 112.957 391.365 112.814 392.523 112.527C393.682 112.241 394.874 111.811 396.098 111.238V115.848C395.017 116.382 393.884 116.772 392.699 117.02C391.527 117.267 390.102 117.391 388.422 117.391C386.234 117.391 384.294 116.987 382.602 116.18C380.922 115.372 379.6 114.142 378.637 112.488C377.686 110.835 377.211 108.751 377.211 106.238C377.211 103.686 377.641 101.564 378.5 99.8711C379.372 98.1654 380.583 96.8893 382.133 96.043C383.682 95.1836 385.486 94.7539 387.543 94.7539ZM387.582 98.9922C386.423 98.9922 385.46 99.3633 384.691 100.105C383.936 100.848 383.5 102.013 383.383 103.602H391.742C391.729 102.716 391.566 101.928 391.254 101.238C390.954 100.548 390.499 100.001 389.887 99.5977C389.288 99.194 388.52 98.9922 387.582 98.9922ZM411.117 94.7148C414.047 94.7148 416.293 95.3529 417.855 96.6289C419.418 97.9049 420.199 99.8451 420.199 102.449V117H416.039L414.887 114.031H414.73C414.105 114.812 413.467 115.451 412.816 115.945C412.165 116.44 411.417 116.805 410.57 117.039C409.724 117.273 408.695 117.391 407.484 117.391C406.195 117.391 405.036 117.143 404.008 116.648C402.992 116.154 402.191 115.398 401.605 114.383C401.02 113.354 400.727 112.052 400.727 110.477C400.727 108.159 401.54 106.453 403.168 105.359C404.796 104.253 407.237 103.641 410.492 103.523L414.281 103.406V102.449C414.281 101.303 413.982 100.464 413.383 99.9297C412.784 99.3958 411.951 99.1289 410.883 99.1289C409.828 99.1289 408.793 99.2786 407.777 99.5781C406.762 99.8776 405.746 100.255 404.73 100.711L402.758 96.6875C403.917 96.0755 405.212 95.5938 406.645 95.2422C408.09 94.8906 409.581 94.7148 411.117 94.7148ZM414.281 106.883L411.977 106.961C410.049 107.013 408.708 107.358 407.953 107.996C407.211 108.634 406.84 109.474 406.84 110.516C406.84 111.427 407.107 112.078 407.641 112.469C408.174 112.846 408.871 113.035 409.73 113.035C411.007 113.035 412.081 112.658 412.953 111.902C413.839 111.147 414.281 110.073 414.281 108.68V106.883ZM432.309 117H426.352V86.6094H432.309V117ZM447.777 112.645C448.428 112.645 449.06 112.579 449.672 112.449C450.297 112.319 450.915 112.156 451.527 111.961V116.395C450.889 116.681 450.095 116.915 449.145 117.098C448.207 117.293 447.178 117.391 446.059 117.391C444.757 117.391 443.585 117.182 442.543 116.766C441.514 116.336 440.701 115.6 440.102 114.559C439.516 113.504 439.223 112.039 439.223 110.164V99.6367H436.371V97.1172L439.652 95.125L441.371 90.5156H445.18V95.1641H451.293V99.6367H445.18V110.164C445.18 110.997 445.414 111.622 445.883 112.039C446.365 112.443 446.996 112.645 447.777 112.645ZM461.918 86.6094V92.8008C461.918 93.8815 461.879 94.9102 461.801 95.8867C461.736 96.8633 461.684 97.5534 461.645 97.957H461.957C462.426 97.2018 462.979 96.5898 463.617 96.1211C464.268 95.6523 464.984 95.3073 465.766 95.0859C466.547 94.8646 467.387 94.7539 468.285 94.7539C469.861 94.7539 471.234 95.0339 472.406 95.5938C473.578 96.1406 474.49 97.0065 475.141 98.1914C475.792 99.3633 476.117 100.887 476.117 102.762V117H470.16V104.246C470.16 102.684 469.874 101.505 469.301 100.711C468.728 99.9167 467.842 99.5195 466.645 99.5195C465.447 99.5195 464.503 99.7995 463.812 100.359C463.122 100.906 462.634 101.72 462.348 102.801C462.061 103.868 461.918 105.177 461.918 106.727V117H455.961V86.6094H461.918ZM479.125 95.1641H485.648L489.77 107.449C489.9 107.84 490.01 108.237 490.102 108.641C490.193 109.044 490.271 109.461 490.336 109.891C490.401 110.32 490.453 110.77 490.492 111.238H490.609C490.688 110.535 490.792 109.878 490.922 109.266C491.065 108.654 491.241 108.048 491.449 107.449L495.492 95.1641H501.879L492.641 119.793C492.081 121.303 491.352 122.56 490.453 123.562C489.555 124.578 488.52 125.34 487.348 125.848C486.189 126.355 484.913 126.609 483.52 126.609C482.842 126.609 482.257 126.57 481.762 126.492C481.267 126.427 480.844 126.355 480.492 126.277V121.551C480.766 121.616 481.111 121.674 481.527 121.727C481.944 121.779 482.38 121.805 482.836 121.805C483.669 121.805 484.385 121.629 484.984 121.277C485.583 120.926 486.085 120.451 486.488 119.852C486.892 119.266 487.211 118.621 487.445 117.918L487.797 116.844L479.125 95.1641Z" fill="black"/>
</svg>
